<mxfile host="app.diagrams.net" modified="2024-01-28T23:05:41.282Z" agent="Mozilla/5.0 (X11; Linux x86_64; rv:121.0) Gecko/20100101 Firefox/121.0" etag="pB3U-13enthGPTI31oRO" version="23.0.2" type="device">
  <diagram name="Page-1" id="Tb9opbWUYj6O2XdYKU85">
    <mxGraphModel dx="1640" dy="1131" grid="1" gridSize="10" guides="1" tooltips="1" connect="1" arrows="1" fold="1" page="1" pageScale="1" pageWidth="850" pageHeight="1100" math="0" shadow="0">
      <root>
        <mxCell id="0" />
        <mxCell id="1" parent="0" />
        <mxCell id="JU8HcmQtdyQmJutsAwk7-38" value="" style="shape=image;verticalLabelPosition=bottom;labelBackgroundColor=default;verticalAlign=top;aspect=fixed;imageAspect=0;image=data:image/svg+xml,PHN2ZyB4bWw6c3BhY2U9InByZXNlcnZlIiB2aWV3Qm94PSIwIDAgNDMxLjkwOCA0MzEuOTA4IiB4bWxuczp4bGluaz0iaHR0cDovL3d3dy53My5vcmcvMTk5OS94bGluayIgeG1sbnM9Imh0dHA6Ly93d3cudzMub3JnLzIwMDAvc3ZnIiBpZD0iQ2FwYV8xIiB2ZXJzaW9uPSIxLjEiIHdpZHRoPSI4MDBweCIgaGVpZ2h0PSI4MDBweCIgZmlsbD0iIzAwMDAwMCI+JiN4YTs8Zz4mI3hhOwk8cGF0aCBkPSJNNDIzLjkwOCwxNTIuMDUxYzQuNDE4LDAsOC0zLjU4Miw4LThzLTMuNTgyLTgtOC04aC0yNC4wMDZ2LTMxLjkzNmgyNC4wMDZjNC40MTgsMCw4LTMuNTgyLDgtOHMtMy41ODItOC04LThoLTI0LjAwNiYjeEE7JiM5OyYjOTtWNzEuOTk2YzAtMjIuMDU2LTE3Ljk0NC00MC00MC00MGgtMTYuMTA5VjhjMC00LjQxOC0zLjU4Mi04LTgtOHMtOCwzLjU4Mi04LDh2MjMuOTk2aC0zMS45MzdWOGMwLTQuNDE4LTMuNTgyLTgtOC04cy04LDMuNTgyLTgsOCYjeEE7JiM5OyYjOTt2MjMuOTk2SDI0Ny45MlY4YzAtNC40MTgtMy41ODItOC04LThzLTgsMy41ODItOCw4djIzLjk5NmgtMzEuOTM1VjhjMC00LjQxOC0zLjU4Mi04LTgtOHMtOCwzLjU4Mi04LDh2MjMuOTk2aC0zMS45MzZWOCYjeEE7JiM5OyYjOTtjMC00LjQxOC0zLjU4Mi04LTgtOHMtOCwzLjU4Mi04LDh2MjMuOTk2aC0zMS45MzZWOGMwLTQuNDE4LTMuNTgyLTgtOC04cy04LDMuNTgyLTgsOHYyMy45OTZINzEuOTg1Yy0yMi4wNTYsMC00MCwxNy45NDQtNDAsNDAmI3hBOyYjOTsmIzk7djE2LjExOUg4Yy00LjQxOCwwLTgsMy41ODItOCw4czMuNTgyLDgsOCw4aDIzLjk4NXYzMS45MzZIOGMtNC40MTgsMC04LDMuNTgyLTgsOHMzLjU4Miw4LDgsOGgyMy45ODV2MzEuOTM2SDgmI3hBOyYjOTsmIzk7Yy00LjQxOCwwLTgsMy41ODItOCw4czMuNTgyLDgsOCw4aDIzLjk4NXYzMS45MzVIOGMtNC40MTgsMC04LDMuNTgyLTgsOHMzLjU4Miw4LDgsOGgyMy45ODV2MzEuOTM2SDhjLTQuNDE4LDAtOCwzLjU4Mi04LDgmI3hBOyYjOTsmIzk7czMuNTgyLDgsOCw4aDIzLjk4NXYzMS45MzZIOGMtNC40MTgsMC04LDMuNTgyLTgsOHMzLjU4Miw4LDgsOGgyMy45ODV2MTYuMTE5YzAsMjIuMDU2LDE3Ljk0NCw0MCw0MCw0MGgxNi4xMjh2MjMuOTk1JiN4QTsmIzk7JiM5O2MwLDQuNDE4LDMuNTgyLDgsOCw4czgtMy41ODIsOC04di0yMy45OTVoMzEuOTM2djIzLjk5NWMwLDQuNDE4LDMuNTgyLDgsOCw4czgtMy41ODIsOC04di0yMy45OTVoMzEuOTM2djIzLjk5NSYjeEE7JiM5OyYjOTtjMCw0LjQxOCwzLjU4Miw4LDgsOHM4LTMuNTgyLDgtOHYtMjMuOTk1aDMxLjkzNXYyMy45OTVjMCw0LjQxOCwzLjU4Miw4LDgsOHM4LTMuNTgyLDgtOHYtMjMuOTk1aDMxLjkzNnYyMy45OTUmI3hBOyYjOTsmIzk7YzAsNC40MTgsMy41ODIsOCw4LDhzOC0zLjU4Miw4LTh2LTIzLjk5NWgzMS45Mzd2MjMuOTk1YzAsNC40MTgsMy41ODIsOCw4LDhzOC0zLjU4Miw4LTh2LTIzLjk5NWgxNi4xMDljMjIuMDU2LDAsNDAtMTcuOTQ0LDQwLTQwJiN4QTsmIzk7JiM5O3YtMTYuMTE5aDI0LjAwNmM0LjQxOCwwLDgtMy41ODIsOC04cy0zLjU4Mi04LTgtOGgtMjQuMDA2di0zMS45MzZoMjQuMDA2YzQuNDE4LDAsOC0zLjU4Miw4LThzLTMuNTgyLTgtOC04aC0yNC4wMDZ2LTMxLjkzNiYjeEE7JiM5OyYjOTtoMjQuMDA2YzQuNDE4LDAsOC0zLjU4Miw4LThzLTMuNTgyLTgtOC04aC0yNC4wMDZ2LTMxLjkzNWgyNC4wMDZjNC40MTgsMCw4LTMuNTgyLDgtOHMtMy41ODItOC04LThoLTI0LjAwNnYtMzEuOTM2SDQyMy45MDh6JiN4QTsmIzk7JiM5OyBNMzgzLjkwMiwzNTkuOTEyYzAsMTMuMjMzLTEwLjc2NywyNC0yNCwyNEg3MS45ODVjLTEzLjIzMywwLTI0LTEwLjc2Ny0yNC0yNFY3MS45OTZjMC0xMy4yMzQsMTAuNzY3LTI0LDI0LTI0aDI4Ny45MTcmI3hBOyYjOTsmIzk7YzEzLjIzMywwLDI0LDEwLjc2NiwyNCwyNFYzNTkuOTEyeiIvPiYjeGE7CTxwYXRoIGQ9Ik0zNDMuNzc3LDcyLjEyMUg4OC4xMWMtOC44MjIsMC0xNiw3LjE3Ny0xNiwxNnYyNTUuNjY3YzAsOC44MjIsNy4xNzgsMTYsMTYsMTZoMjU1LjY2N2M4LjgyMiwwLDE2LTcuMTc4LDE2LTE2Vjg4LjEyMSYjeEE7JiM5OyYjOTtDMzU5Ljc3Nyw3OS4yOTgsMzUyLjU5OSw3Mi4xMjEsMzQzLjc3Nyw3Mi4xMjF6IE04OC4xMSwzNDMuNzg3Vjg4LjEyMWgyNTUuNjY3bDAuMDAyLDI1NS42NjdIODguMTF6Ii8+JiN4YTs8L2c+JiN4YTs8L3N2Zz4=;fontFamily=CMU;fontSource=https%3A%2F%2Fwww.1001fonts.com%2Fdownload%2Ffont%2Fcmu.serif-roman.ttf;imageBackground=none;" parent="1" vertex="1">
          <mxGeometry x="1150" y="340" width="120" height="120" as="geometry" />
        </mxCell>
        <mxCell id="Dnwnsu_DIY2m_wWiFTCC-34" value="" style="strokeWidth=3;html=1;shape=mxgraph.flowchart.document2;whiteSpace=wrap;size=0.25;fontFamily=CMU;fontSource=https%3A%2F%2Fwww.1001fonts.com%2Fdownload%2Ffont%2Fcmu.serif-roman.ttf;fontSize=13;fontStyle=0" parent="1" vertex="1">
          <mxGeometry x="583" y="290" width="193" height="100" as="geometry" />
        </mxCell>
        <mxCell id="Dnwnsu_DIY2m_wWiFTCC-33" value="" style="strokeWidth=3;html=1;shape=mxgraph.flowchart.document2;whiteSpace=wrap;size=0.25;fontFamily=CMU;fontSource=https%3A%2F%2Fwww.1001fonts.com%2Fdownload%2Ffont%2Fcmu.serif-roman.ttf;fontSize=13;fontStyle=0" parent="1" vertex="1">
          <mxGeometry x="573" y="300" width="193" height="100" as="geometry" />
        </mxCell>
        <mxCell id="Dnwnsu_DIY2m_wWiFTCC-1" value="" style="rounded=1;whiteSpace=wrap;html=1;fontFamily=CMU;fontSource=https%3A%2F%2Fwww.1001fonts.com%2Fdownload%2Ffont%2Fcmu.serif-roman.ttf;strokeWidth=3;fontSize=13;fontStyle=0" parent="1" vertex="1">
          <mxGeometry x="810" y="260" width="240" height="420" as="geometry" />
        </mxCell>
        <mxCell id="Dnwnsu_DIY2m_wWiFTCC-28" value="" style="edgeStyle=orthogonalEdgeStyle;rounded=0;orthogonalLoop=1;jettySize=auto;html=1;startArrow=classic;startFill=1;fontFamily=CMU;fontSource=https%3A%2F%2Fwww.1001fonts.com%2Fdownload%2Ffont%2Fcmu.serif-roman.ttf;strokeWidth=3;fontSize=13;fontStyle=0;exitX=1;exitY=0.5;exitDx=0;exitDy=0;" parent="1" source="ytyGBiGrYd6FcFZJDp8n-3" target="Dnwnsu_DIY2m_wWiFTCC-35" edge="1">
          <mxGeometry relative="1" as="geometry">
            <mxPoint x="540" y="262" as="targetPoint" />
          </mxGeometry>
        </mxCell>
        <mxCell id="Dnwnsu_DIY2m_wWiFTCC-29" value="JTAG" style="edgeLabel;html=1;align=center;verticalAlign=middle;resizable=0;points=[];fontFamily=CMU;fontSource=https%3A%2F%2Fwww.1001fonts.com%2Fdownload%2Ffont%2Fcmu.serif-roman.ttf;fontSize=16;fontStyle=0" parent="Dnwnsu_DIY2m_wWiFTCC-28" vertex="1" connectable="0">
          <mxGeometry relative="1" as="geometry">
            <mxPoint as="offset" />
          </mxGeometry>
        </mxCell>
        <mxCell id="Dnwnsu_DIY2m_wWiFTCC-11" style="edgeStyle=orthogonalEdgeStyle;rounded=0;orthogonalLoop=1;jettySize=auto;html=1;entryX=0;entryY=0.5;entryDx=0;entryDy=0;fontFamily=CMU;fontSource=https%3A%2F%2Fwww.1001fonts.com%2Fdownload%2Ffont%2Fcmu.serif-roman.ttf;strokeWidth=3;fontSize=13;fontStyle=0;endArrow=none;endFill=0;startArrow=classic;startFill=1;" parent="1" source="Dnwnsu_DIY2m_wWiFTCC-6" target="ytyGBiGrYd6FcFZJDp8n-6" edge="1">
          <mxGeometry relative="1" as="geometry" />
        </mxCell>
        <mxCell id="Dnwnsu_DIY2m_wWiFTCC-6" value="" style="html=1;verticalLabelPosition=bottom;align=center;labelBackgroundColor=#ffffff;verticalAlign=top;strokeWidth=3;strokeColor=#000000;shadow=0;dashed=0;shape=mxgraph.ios7.icons.monitor;fontFamily=CMU;fontSource=https%3A%2F%2Fwww.1001fonts.com%2Fdownload%2Ffont%2Fcmu.serif-roman.ttf;fontSize=13;fontStyle=0" parent="1" vertex="1">
          <mxGeometry x="593.62" y="580" width="151.75" height="80" as="geometry" />
        </mxCell>
        <mxCell id="Dnwnsu_DIY2m_wWiFTCC-19" value="" style="strokeWidth=3;html=1;shape=mxgraph.flowchart.document2;whiteSpace=wrap;size=0.25;fontFamily=CMU;fontSource=https%3A%2F%2Fwww.1001fonts.com%2Fdownload%2Ffont%2Fcmu.serif-roman.ttf;fontSize=13;fontStyle=0" parent="1" vertex="1">
          <mxGeometry x="563" y="310" width="193" height="100" as="geometry" />
        </mxCell>
        <mxCell id="ytyGBiGrYd6FcFZJDp8n-1" value="&lt;font size=&quot;1&quot;&gt;&lt;b style=&quot;font-size: 22px;&quot;&gt;ConFuzz&lt;/b&gt;&lt;/font&gt;" style="text;html=1;strokeColor=none;fillColor=none;align=center;verticalAlign=middle;whiteSpace=wrap;rounded=0;fontFamily=computer modern bold;fontSource=http%3A%2F%2Fmirrors.ctan.org%2Ffonts%2Fcm-unicode%2Ffonts%2Fotf%2Fcmunsx.otf;" parent="1" vertex="1">
          <mxGeometry x="810" y="270" width="240" height="40" as="geometry" />
        </mxCell>
        <mxCell id="JU8HcmQtdyQmJutsAwk7-10" style="edgeStyle=orthogonalEdgeStyle;rounded=0;orthogonalLoop=1;jettySize=auto;html=1;entryX=0.5;entryY=0;entryDx=0;entryDy=0;spacing=3;strokeWidth=3;fontFamily=CMU;fontSource=https%3A%2F%2Fwww.1001fonts.com%2Fdownload%2Ffont%2Fcmu.serif-roman.ttf;" parent="1" source="ytyGBiGrYd6FcFZJDp8n-2" target="ytyGBiGrYd6FcFZJDp8n-3" edge="1">
          <mxGeometry relative="1" as="geometry" />
        </mxCell>
        <mxCell id="ytyGBiGrYd6FcFZJDp8n-2" value="" style="rounded=0;whiteSpace=wrap;html=1;strokeWidth=4;fontFamily=CMU;fontSource=https%3A%2F%2Fwww.1001fonts.com%2Fdownload%2Ffont%2Fcmu.serif-roman.ttf;" parent="1" vertex="1">
          <mxGeometry x="840" y="320" width="180" height="60" as="geometry" />
        </mxCell>
        <mxCell id="JU8HcmQtdyQmJutsAwk7-11" style="edgeStyle=orthogonalEdgeStyle;rounded=0;orthogonalLoop=1;jettySize=auto;html=1;entryX=0.5;entryY=0;entryDx=0;entryDy=0;strokeWidth=3;fontFamily=CMU;fontSource=https%3A%2F%2Fwww.1001fonts.com%2Fdownload%2Ffont%2Fcmu.serif-roman.ttf;" parent="1" source="ytyGBiGrYd6FcFZJDp8n-3" target="ytyGBiGrYd6FcFZJDp8n-5" edge="1">
          <mxGeometry relative="1" as="geometry" />
        </mxCell>
        <mxCell id="ytyGBiGrYd6FcFZJDp8n-3" value="" style="rounded=0;whiteSpace=wrap;html=1;strokeWidth=4;fontFamily=CMU;fontSource=https%3A%2F%2Fwww.1001fonts.com%2Fdownload%2Ffont%2Fcmu.serif-roman.ttf;" parent="1" vertex="1">
          <mxGeometry x="840" y="410" width="180" height="60" as="geometry" />
        </mxCell>
        <mxCell id="JU8HcmQtdyQmJutsAwk7-13" style="edgeStyle=orthogonalEdgeStyle;rounded=0;orthogonalLoop=1;jettySize=auto;html=1;entryX=0.5;entryY=0;entryDx=0;entryDy=0;spacing=3;strokeWidth=3;fontFamily=CMU;fontSource=https%3A%2F%2Fwww.1001fonts.com%2Fdownload%2Ffont%2Fcmu.serif-roman.ttf;" parent="1" source="ytyGBiGrYd6FcFZJDp8n-5" target="ytyGBiGrYd6FcFZJDp8n-6" edge="1">
          <mxGeometry relative="1" as="geometry" />
        </mxCell>
        <mxCell id="ytyGBiGrYd6FcFZJDp8n-5" value="" style="rounded=0;whiteSpace=wrap;html=1;strokeWidth=4;fontFamily=CMU;fontSource=https%3A%2F%2Fwww.1001fonts.com%2Fdownload%2Ffont%2Fcmu.serif-roman.ttf;" parent="1" vertex="1">
          <mxGeometry x="840" y="500" width="180" height="60" as="geometry" />
        </mxCell>
        <mxCell id="ytyGBiGrYd6FcFZJDp8n-6" value="" style="rounded=0;whiteSpace=wrap;html=1;strokeWidth=4;fontFamily=CMU;fontSource=https%3A%2F%2Fwww.1001fonts.com%2Fdownload%2Ffont%2Fcmu.serif-roman.ttf;" parent="1" vertex="1">
          <mxGeometry x="840" y="590" width="180" height="60" as="geometry" />
        </mxCell>
        <mxCell id="ytyGBiGrYd6FcFZJDp8n-9" style="edgeStyle=orthogonalEdgeStyle;rounded=0;orthogonalLoop=1;jettySize=auto;html=1;entryX=0.994;entryY=0.4;entryDx=0;entryDy=0;fontFamily=CMU;fontSource=https%3A%2F%2Fwww.1001fonts.com%2Fdownload%2Ffont%2Fcmu.serif-roman.ttf;strokeWidth=3;fontSize=13;fontStyle=0;endArrow=none;endFill=0;startArrow=classic;startFill=1;exitX=0;exitY=0.5;exitDx=0;exitDy=0;entryPerimeter=0;" parent="1" source="ytyGBiGrYd6FcFZJDp8n-2" target="Dnwnsu_DIY2m_wWiFTCC-19" edge="1">
          <mxGeometry relative="1" as="geometry">
            <mxPoint x="660" y="650" as="sourcePoint" />
            <mxPoint x="885" y="650" as="targetPoint" />
          </mxGeometry>
        </mxCell>
        <mxCell id="ytyGBiGrYd6FcFZJDp8n-11" value="" style="endArrow=classic;html=1;rounded=0;entryX=0.002;entryY=0.469;entryDx=0;entryDy=0;strokeWidth=3;fontFamily=CMU;fontSource=https%3A%2F%2Fwww.1001fonts.com%2Fdownload%2Ffont%2Fcmu.serif-roman.ttf;entryPerimeter=0;" parent="1" target="Dnwnsu_DIY2m_wWiFTCC-19" edge="1">
          <mxGeometry width="50" height="50" relative="1" as="geometry">
            <mxPoint x="480" y="420" as="sourcePoint" />
            <mxPoint x="577" y="425" as="targetPoint" />
          </mxGeometry>
        </mxCell>
        <mxCell id="ytyGBiGrYd6FcFZJDp8n-12" value="" style="endArrow=classic;html=1;rounded=0;strokeWidth=3;fontFamily=CMU;fontSource=https%3A%2F%2Fwww.1001fonts.com%2Fdownload%2Ffont%2Fcmu.serif-roman.ttf;exitX=-0.012;exitY=0.443;exitDx=0;exitDy=0;exitPerimeter=0;" parent="1" source="Dnwnsu_DIY2m_wWiFTCC-6" edge="1">
          <mxGeometry width="50" height="50" relative="1" as="geometry">
            <mxPoint x="610" y="610" as="sourcePoint" />
            <mxPoint x="480" y="520" as="targetPoint" />
          </mxGeometry>
        </mxCell>
        <mxCell id="ytyGBiGrYd6FcFZJDp8n-16" value="&lt;font style=&quot;font-size: 16px;&quot;&gt;2&lt;/font&gt;" style="ellipse;whiteSpace=wrap;html=1;aspect=fixed;fontStyle=1;strokeWidth=3;fontFamily=CMU;fontSource=https%3A%2F%2Fwww.1001fonts.com%2Fdownload%2Ffont%2Fcmu.serif-roman.ttf;fontSize=16;" parent="1" vertex="1">
          <mxGeometry x="1009" y="309" width="22" height="22" as="geometry" />
        </mxCell>
        <mxCell id="ytyGBiGrYd6FcFZJDp8n-17" value="&lt;font style=&quot;font-size: 16px;&quot;&gt;3&lt;/font&gt;" style="ellipse;whiteSpace=wrap;html=1;aspect=fixed;fontStyle=1;strokeWidth=3;fontFamily=CMU;fontSource=https%3A%2F%2Fwww.1001fonts.com%2Fdownload%2Ffont%2Fcmu.serif-roman.ttf;fontSize=16;" parent="1" vertex="1">
          <mxGeometry x="1009" y="399" width="22" height="22" as="geometry" />
        </mxCell>
        <mxCell id="ytyGBiGrYd6FcFZJDp8n-18" value="&lt;font style=&quot;font-size: 16px;&quot;&gt;4&lt;/font&gt;" style="ellipse;whiteSpace=wrap;html=1;aspect=fixed;fontStyle=1;strokeWidth=3;fontFamily=CMU;fontSource=https%3A%2F%2Fwww.1001fonts.com%2Fdownload%2Ffont%2Fcmu.serif-roman.ttf;fontSize=16;" parent="1" vertex="1">
          <mxGeometry x="1009" y="489" width="22" height="22" as="geometry" />
        </mxCell>
        <mxCell id="ytyGBiGrYd6FcFZJDp8n-20" value="5" style="ellipse;whiteSpace=wrap;html=1;aspect=fixed;fontStyle=1;strokeWidth=3;fontFamily=CMU;fontSource=https%3A%2F%2Fwww.1001fonts.com%2Fdownload%2Ffont%2Fcmu.serif-roman.ttf;fontSize=16;" parent="1" vertex="1">
          <mxGeometry x="1009" y="579" width="22" height="22" as="geometry" />
        </mxCell>
        <mxCell id="JU8HcmQtdyQmJutsAwk7-2" value="&lt;font style=&quot;font-size: 16px;&quot; data-font-src=&quot;https://www.1001fonts.com/download/font/cmu.serif-roman.ttf&quot;&gt;Structure-Aware Mutator&lt;/font&gt;" style="text;whiteSpace=wrap;html=1;align=center;verticalAlign=middle;fontFamily=CMU;fontSource=https%3A%2F%2Fwww.1001fonts.com%2Fdownload%2Ffont%2Fcmu.serif-roman.ttf;" parent="1" vertex="1">
          <mxGeometry x="860" y="320" width="136" height="60" as="geometry" />
        </mxCell>
        <mxCell id="JU8HcmQtdyQmJutsAwk7-5" value="&lt;font style=&quot;font-size: 16px;&quot;&gt;Evaluation&lt;/font&gt;" style="text;whiteSpace=wrap;html=1;align=center;verticalAlign=middle;fontFamily=CMU;fontSource=https%3A%2F%2Fwww.1001fonts.com%2Fdownload%2Ffont%2Fcmu.serif-roman.ttf;" parent="1" vertex="1">
          <mxGeometry x="860" y="500" width="140" height="60" as="geometry" />
        </mxCell>
        <mxCell id="JU8HcmQtdyQmJutsAwk7-6" value="&lt;font style=&quot;font-size: 16px;&quot;&gt;HAL&lt;/font&gt;" style="text;whiteSpace=wrap;html=1;verticalAlign=middle;align=center;fontFamily=CMU;fontSource=https%3A%2F%2Fwww.1001fonts.com%2Fdownload%2Ffont%2Fcmu.serif-roman.ttf;" parent="1" vertex="1">
          <mxGeometry x="860" y="410" width="140" height="60" as="geometry" />
        </mxCell>
        <mxCell id="JU8HcmQtdyQmJutsAwk7-7" value="&lt;font style=&quot;font-size: 16px;&quot;&gt;UI&lt;/font&gt;" style="text;whiteSpace=wrap;html=1;verticalAlign=middle;fontFamily=CMU;fontSource=https%3A%2F%2Fwww.1001fonts.com%2Fdownload%2Ffont%2Fcmu.serif-roman.ttf;align=center;" parent="1" vertex="1">
          <mxGeometry x="860" y="590" width="140" height="60" as="geometry" />
        </mxCell>
        <mxCell id="JU8HcmQtdyQmJutsAwk7-27" value="" style="group;fontFamily=CMU;fontSource=https%3A%2F%2Fwww.1001fonts.com%2Fdownload%2Ffont%2Fcmu.serif-roman.ttf;" parent="1" vertex="1" connectable="0">
          <mxGeometry x="1110" y="380" width="140" height="120" as="geometry" />
        </mxCell>
        <mxCell id="JU8HcmQtdyQmJutsAwk7-29" value="" style="group;fontFamily=CMU;fontSource=https%3A%2F%2Fwww.1001fonts.com%2Fdownload%2Ffont%2Fcmu.serif-roman.ttf;" parent="JU8HcmQtdyQmJutsAwk7-27" vertex="1" connectable="0">
          <mxGeometry x="20" y="-20" width="120" height="120" as="geometry" />
        </mxCell>
        <mxCell id="JU8HcmQtdyQmJutsAwk7-30" value="" style="rounded=1;whiteSpace=wrap;html=1;arcSize=10;fontFamily=CMU;fontSource=https%3A%2F%2Fwww.1001fonts.com%2Fdownload%2Ffont%2Fcmu.serif-roman.ttf;" parent="JU8HcmQtdyQmJutsAwk7-29" vertex="1">
          <mxGeometry x="10" y="10" width="100" height="100" as="geometry" />
        </mxCell>
        <mxCell id="JU8HcmQtdyQmJutsAwk7-31" value="" style="shape=image;verticalLabelPosition=bottom;labelBackgroundColor=default;verticalAlign=top;aspect=fixed;imageAspect=0;image=data:image/svg+xml,PHN2ZyB4bWw6c3BhY2U9InByZXNlcnZlIiB2aWV3Qm94PSIwIDAgNDMxLjkwOCA0MzEuOTA4IiB4bWxuczp4bGluaz0iaHR0cDovL3d3dy53My5vcmcvMTk5OS94bGluayIgeG1sbnM9Imh0dHA6Ly93d3cudzMub3JnLzIwMDAvc3ZnIiBpZD0iQ2FwYV8xIiB2ZXJzaW9uPSIxLjEiIHdpZHRoPSI4MDBweCIgaGVpZ2h0PSI4MDBweCIgZmlsbD0iIzAwMDAwMCI+JiN4YTs8Zz4mI3hhOwk8cGF0aCBkPSJNNDIzLjkwOCwxNTIuMDUxYzQuNDE4LDAsOC0zLjU4Miw4LThzLTMuNTgyLTgtOC04aC0yNC4wMDZ2LTMxLjkzNmgyNC4wMDZjNC40MTgsMCw4LTMuNTgyLDgtOHMtMy41ODItOC04LThoLTI0LjAwNiYjeEE7JiM5OyYjOTtWNzEuOTk2YzAtMjIuMDU2LTE3Ljk0NC00MC00MC00MGgtMTYuMTA5VjhjMC00LjQxOC0zLjU4Mi04LTgtOHMtOCwzLjU4Mi04LDh2MjMuOTk2aC0zMS45MzdWOGMwLTQuNDE4LTMuNTgyLTgtOC04cy04LDMuNTgyLTgsOCYjeEE7JiM5OyYjOTt2MjMuOTk2SDI0Ny45MlY4YzAtNC40MTgtMy41ODItOC04LThzLTgsMy41ODItOCw4djIzLjk5NmgtMzEuOTM1VjhjMC00LjQxOC0zLjU4Mi04LTgtOHMtOCwzLjU4Mi04LDh2MjMuOTk2aC0zMS45MzZWOCYjeEE7JiM5OyYjOTtjMC00LjQxOC0zLjU4Mi04LTgtOHMtOCwzLjU4Mi04LDh2MjMuOTk2aC0zMS45MzZWOGMwLTQuNDE4LTMuNTgyLTgtOC04cy04LDMuNTgyLTgsOHYyMy45OTZINzEuOTg1Yy0yMi4wNTYsMC00MCwxNy45NDQtNDAsNDAmI3hBOyYjOTsmIzk7djE2LjExOUg4Yy00LjQxOCwwLTgsMy41ODItOCw4czMuNTgyLDgsOCw4aDIzLjk4NXYzMS45MzZIOGMtNC40MTgsMC04LDMuNTgyLTgsOHMzLjU4Miw4LDgsOGgyMy45ODV2MzEuOTM2SDgmI3hBOyYjOTsmIzk7Yy00LjQxOCwwLTgsMy41ODItOCw4czMuNTgyLDgsOCw4aDIzLjk4NXYzMS45MzVIOGMtNC40MTgsMC04LDMuNTgyLTgsOHMzLjU4Miw4LDgsOGgyMy45ODV2MzEuOTM2SDhjLTQuNDE4LDAtOCwzLjU4Mi04LDgmI3hBOyYjOTsmIzk7czMuNTgyLDgsOCw4aDIzLjk4NXYzMS45MzZIOGMtNC40MTgsMC04LDMuNTgyLTgsOHMzLjU4Miw4LDgsOGgyMy45ODV2MTYuMTE5YzAsMjIuMDU2LDE3Ljk0NCw0MCw0MCw0MGgxNi4xMjh2MjMuOTk1JiN4QTsmIzk7JiM5O2MwLDQuNDE4LDMuNTgyLDgsOCw4czgtMy41ODIsOC04di0yMy45OTVoMzEuOTM2djIzLjk5NWMwLDQuNDE4LDMuNTgyLDgsOCw4czgtMy41ODIsOC04di0yMy45OTVoMzEuOTM2djIzLjk5NSYjeEE7JiM5OyYjOTtjMCw0LjQxOCwzLjU4Miw4LDgsOHM4LTMuNTgyLDgtOHYtMjMuOTk1aDMxLjkzNXYyMy45OTVjMCw0LjQxOCwzLjU4Miw4LDgsOHM4LTMuNTgyLDgtOHYtMjMuOTk1aDMxLjkzNnYyMy45OTUmI3hBOyYjOTsmIzk7YzAsNC40MTgsMy41ODIsOCw4LDhzOC0zLjU4Miw4LTh2LTIzLjk5NWgzMS45Mzd2MjMuOTk1YzAsNC40MTgsMy41ODIsOCw4LDhzOC0zLjU4Miw4LTh2LTIzLjk5NWgxNi4xMDljMjIuMDU2LDAsNDAtMTcuOTQ0LDQwLTQwJiN4QTsmIzk7JiM5O3YtMTYuMTE5aDI0LjAwNmM0LjQxOCwwLDgtMy41ODIsOC04cy0zLjU4Mi04LTgtOGgtMjQuMDA2di0zMS45MzZoMjQuMDA2YzQuNDE4LDAsOC0zLjU4Miw4LThzLTMuNTgyLTgtOC04aC0yNC4wMDZ2LTMxLjkzNiYjeEE7JiM5OyYjOTtoMjQuMDA2YzQuNDE4LDAsOC0zLjU4Miw4LThzLTMuNTgyLTgtOC04aC0yNC4wMDZ2LTMxLjkzNWgyNC4wMDZjNC40MTgsMCw4LTMuNTgyLDgtOHMtMy41ODItOC04LThoLTI0LjAwNnYtMzEuOTM2SDQyMy45MDh6JiN4QTsmIzk7JiM5OyBNMzgzLjkwMiwzNTkuOTEyYzAsMTMuMjMzLTEwLjc2NywyNC0yNCwyNEg3MS45ODVjLTEzLjIzMywwLTI0LTEwLjc2Ny0yNC0yNFY3MS45OTZjMC0xMy4yMzQsMTAuNzY3LTI0LDI0LTI0aDI4Ny45MTcmI3hBOyYjOTsmIzk7YzEzLjIzMywwLDI0LDEwLjc2NiwyNCwyNFYzNTkuOTEyeiIvPiYjeGE7CTxwYXRoIGQ9Ik0zNDMuNzc3LDcyLjEyMUg4OC4xMWMtOC44MjIsMC0xNiw3LjE3Ny0xNiwxNnYyNTUuNjY3YzAsOC44MjIsNy4xNzgsMTYsMTYsMTZoMjU1LjY2N2M4LjgyMiwwLDE2LTcuMTc4LDE2LTE2Vjg4LjEyMSYjeEE7JiM5OyYjOTtDMzU5Ljc3Nyw3OS4yOTgsMzUyLjU5OSw3Mi4xMjEsMzQzLjc3Nyw3Mi4xMjF6IE04OC4xMSwzNDMuNzg3Vjg4LjEyMWgyNTUuNjY3bDAuMDAyLDI1NS42NjdIODguMTF6Ii8+JiN4YTs8L2c+JiN4YTs8L3N2Zz4=;fontFamily=CMU;fontSource=https%3A%2F%2Fwww.1001fonts.com%2Fdownload%2Ffont%2Fcmu.serif-roman.ttf;imageBackground=none;" parent="JU8HcmQtdyQmJutsAwk7-29" vertex="1">
          <mxGeometry width="120" height="120" as="geometry" />
        </mxCell>
        <mxCell id="JU8HcmQtdyQmJutsAwk7-19" value="" style="rounded=1;whiteSpace=wrap;html=1;arcSize=10;fontFamily=CMU;fontSource=https%3A%2F%2Fwww.1001fonts.com%2Fdownload%2Ffont%2Fcmu.serif-roman.ttf;" parent="JU8HcmQtdyQmJutsAwk7-27" vertex="1">
          <mxGeometry x="10" y="10" width="100" height="100" as="geometry" />
        </mxCell>
        <mxCell id="Dnwnsu_DIY2m_wWiFTCC-35" value="" style="shape=image;verticalLabelPosition=bottom;labelBackgroundColor=default;verticalAlign=top;aspect=fixed;imageAspect=0;image=data:image/svg+xml,PHN2ZyB4bWw6c3BhY2U9InByZXNlcnZlIiB2aWV3Qm94PSIwIDAgNDMxLjkwOCA0MzEuOTA4IiB4bWxuczp4bGluaz0iaHR0cDovL3d3dy53My5vcmcvMTk5OS94bGluayIgeG1sbnM9Imh0dHA6Ly93d3cudzMub3JnLzIwMDAvc3ZnIiBpZD0iQ2FwYV8xIiB2ZXJzaW9uPSIxLjEiIHdpZHRoPSI4MDBweCIgaGVpZ2h0PSI4MDBweCIgZmlsbD0iIzAwMDAwMCI+JiN4YTs8Zz4mI3hhOwk8cGF0aCBkPSJNNDIzLjkwOCwxNTIuMDUxYzQuNDE4LDAsOC0zLjU4Miw4LThzLTMuNTgyLTgtOC04aC0yNC4wMDZ2LTMxLjkzNmgyNC4wMDZjNC40MTgsMCw4LTMuNTgyLDgtOHMtMy41ODItOC04LThoLTI0LjAwNiYjeEE7JiM5OyYjOTtWNzEuOTk2YzAtMjIuMDU2LTE3Ljk0NC00MC00MC00MGgtMTYuMTA5VjhjMC00LjQxOC0zLjU4Mi04LTgtOHMtOCwzLjU4Mi04LDh2MjMuOTk2aC0zMS45MzdWOGMwLTQuNDE4LTMuNTgyLTgtOC04cy04LDMuNTgyLTgsOCYjeEE7JiM5OyYjOTt2MjMuOTk2SDI0Ny45MlY4YzAtNC40MTgtMy41ODItOC04LThzLTgsMy41ODItOCw4djIzLjk5NmgtMzEuOTM1VjhjMC00LjQxOC0zLjU4Mi04LTgtOHMtOCwzLjU4Mi04LDh2MjMuOTk2aC0zMS45MzZWOCYjeEE7JiM5OyYjOTtjMC00LjQxOC0zLjU4Mi04LTgtOHMtOCwzLjU4Mi04LDh2MjMuOTk2aC0zMS45MzZWOGMwLTQuNDE4LTMuNTgyLTgtOC04cy04LDMuNTgyLTgsOHYyMy45OTZINzEuOTg1Yy0yMi4wNTYsMC00MCwxNy45NDQtNDAsNDAmI3hBOyYjOTsmIzk7djE2LjExOUg4Yy00LjQxOCwwLTgsMy41ODItOCw4czMuNTgyLDgsOCw4aDIzLjk4NXYzMS45MzZIOGMtNC40MTgsMC04LDMuNTgyLTgsOHMzLjU4Miw4LDgsOGgyMy45ODV2MzEuOTM2SDgmI3hBOyYjOTsmIzk7Yy00LjQxOCwwLTgsMy41ODItOCw4czMuNTgyLDgsOCw4aDIzLjk4NXYzMS45MzVIOGMtNC40MTgsMC04LDMuNTgyLTgsOHMzLjU4Miw4LDgsOGgyMy45ODV2MzEuOTM2SDhjLTQuNDE4LDAtOCwzLjU4Mi04LDgmI3hBOyYjOTsmIzk7czMuNTgyLDgsOCw4aDIzLjk4NXYzMS45MzZIOGMtNC40MTgsMC04LDMuNTgyLTgsOHMzLjU4Miw4LDgsOGgyMy45ODV2MTYuMTE5YzAsMjIuMDU2LDE3Ljk0NCw0MCw0MCw0MGgxNi4xMjh2MjMuOTk1JiN4QTsmIzk7JiM5O2MwLDQuNDE4LDMuNTgyLDgsOCw4czgtMy41ODIsOC04di0yMy45OTVoMzEuOTM2djIzLjk5NWMwLDQuNDE4LDMuNTgyLDgsOCw4czgtMy41ODIsOC04di0yMy45OTVoMzEuOTM2djIzLjk5NSYjeEE7JiM5OyYjOTtjMCw0LjQxOCwzLjU4Miw4LDgsOHM4LTMuNTgyLDgtOHYtMjMuOTk1aDMxLjkzNXYyMy45OTVjMCw0LjQxOCwzLjU4Miw4LDgsOHM4LTMuNTgyLDgtOHYtMjMuOTk1aDMxLjkzNnYyMy45OTUmI3hBOyYjOTsmIzk7YzAsNC40MTgsMy41ODIsOCw4LDhzOC0zLjU4Miw4LTh2LTIzLjk5NWgzMS45Mzd2MjMuOTk1YzAsNC40MTgsMy41ODIsOCw4LDhzOC0zLjU4Miw4LTh2LTIzLjk5NWgxNi4xMDljMjIuMDU2LDAsNDAtMTcuOTQ0LDQwLTQwJiN4QTsmIzk7JiM5O3YtMTYuMTE5aDI0LjAwNmM0LjQxOCwwLDgtMy41ODIsOC04cy0zLjU4Mi04LTgtOGgtMjQuMDA2di0zMS45MzZoMjQuMDA2YzQuNDE4LDAsOC0zLjU4Miw4LThzLTMuNTgyLTgtOC04aC0yNC4wMDZ2LTMxLjkzNiYjeEE7JiM5OyYjOTtoMjQuMDA2YzQuNDE4LDAsOC0zLjU4Miw4LThzLTMuNTgyLTgtOC04aC0yNC4wMDZ2LTMxLjkzNWgyNC4wMDZjNC40MTgsMCw4LTMuNTgyLDgtOHMtMy41ODItOC04LThoLTI0LjAwNnYtMzEuOTM2SDQyMy45MDh6JiN4QTsmIzk7JiM5OyBNMzgzLjkwMiwzNTkuOTEyYzAsMTMuMjMzLTEwLjc2NywyNC0yNCwyNEg3MS45ODVjLTEzLjIzMywwLTI0LTEwLjc2Ny0yNC0yNFY3MS45OTZjMC0xMy4yMzQsMTAuNzY3LTI0LDI0LTI0aDI4Ny45MTcmI3hBOyYjOTsmIzk7YzEzLjIzMywwLDI0LDEwLjc2NiwyNCwyNFYzNTkuOTEyeiIvPiYjeGE7CTxwYXRoIGQ9Ik0zNDMuNzc3LDcyLjEyMUg4OC4xMWMtOC44MjIsMC0xNiw3LjE3Ny0xNiwxNnYyNTUuNjY3YzAsOC44MjIsNy4xNzgsMTYsMTYsMTZoMjU1LjY2N2M4LjgyMiwwLDE2LTcuMTc4LDE2LTE2Vjg4LjEyMSYjeEE7JiM5OyYjOTtDMzU5Ljc3Nyw3OS4yOTgsMzUyLjU5OSw3Mi4xMjEsMzQzLjc3Nyw3Mi4xMjF6IE04OC4xMSwzNDMuNzg3Vjg4LjEyMWgyNTUuNjY3bDAuMDAyLDI1NS42NjdIODguMTF6Ii8+JiN4YTs8L2c+JiN4YTs8L3N2Zz4=;fontFamily=CMU;fontSource=https%3A%2F%2Fwww.1001fonts.com%2Fdownload%2Ffont%2Fcmu.serif-roman.ttf;imageBackground=none;" parent="JU8HcmQtdyQmJutsAwk7-27" vertex="1">
          <mxGeometry width="120" height="120" as="geometry" />
        </mxCell>
        <mxCell id="JU8HcmQtdyQmJutsAwk7-18" value="&lt;font style=&quot;font-size: 16px;&quot;&gt;FPGA&lt;/font&gt;" style="text;html=1;align=center;verticalAlign=middle;resizable=0;points=[];autosize=1;strokeColor=none;fillColor=none;fontFamily=CMU;fontSource=https%3A%2F%2Fwww.1001fonts.com%2Fdownload%2Ffont%2Fcmu.serif-roman.ttf;fontSize=13;fontStyle=0" parent="JU8HcmQtdyQmJutsAwk7-27" vertex="1">
          <mxGeometry x="25" y="45" width="70" height="30" as="geometry" />
        </mxCell>
        <mxCell id="JU8HcmQtdyQmJutsAwk7-44" value="&lt;font data-font-src=&quot;https://www.1001fonts.com/download/font/cmu.serif-roman.ttf&quot; style=&quot;font-size: 16px;&quot;&gt;1&lt;/font&gt;" style="ellipse;whiteSpace=wrap;html=1;aspect=fixed;fontStyle=1;strokeWidth=3;fontFamily=CMU;fontSource=https%3A%2F%2Fwww.1001fonts.com%2Fdownload%2Ffont%2Fcmu.serif-roman.ttf;fontSize=16;" parent="1" vertex="1">
          <mxGeometry x="765" y="279" width="22" height="22" as="geometry" />
        </mxCell>
        <mxCell id="JU8HcmQtdyQmJutsAwk7-45" value="&lt;div align=&quot;center&quot; style=&quot;font-size: 16px;&quot;&gt;&lt;font data-font-src=&quot;https://www.1001fonts.com/download/font/cmu.serif-roman.ttf&quot; face=&quot;CMU&quot; style=&quot;font-size: 16px;&quot;&gt;Security Engineer&lt;/font&gt;&lt;/div&gt;" style="text;whiteSpace=wrap;html=1;align=center;verticalAlign=middle;fontSize=16;" parent="1" vertex="1">
          <mxGeometry x="340" y="479.5" width="140" height="41" as="geometry" />
        </mxCell>
        <mxCell id="JU8HcmQtdyQmJutsAwk7-47" value="&lt;div style=&quot;font-size: 16px;&quot;&gt;&lt;font style=&quot;font-size: 16px;&quot;&gt;Fuzzer Strategy&amp;nbsp;&lt;/font&gt;&lt;/div&gt;&lt;div style=&quot;font-size: 16px;&quot;&gt;&lt;font style=&quot;font-size: 16px;&quot;&gt;&amp;amp; Definition&lt;/font&gt;&lt;/div&gt;" style="text;whiteSpace=wrap;html=1;verticalAlign=middle;align=center;fontSize=16;fontFamily=CMU;fontSource=https%3A%2F%2Fwww.1001fonts.com%2Fdownload%2Ffont%2Fcmu.serif-roman.ttf;" parent="1" vertex="1">
          <mxGeometry x="594.5" y="320" width="130" height="60" as="geometry" />
        </mxCell>
        <mxCell id="1o7vuktFabqarNYMkRX7-1" value="" style="image;sketch=0;aspect=fixed;html=1;points=[];align=center;fontSize=12;image=img/lib/mscae/Person.svg;" vertex="1" parent="1">
          <mxGeometry x="376.7" y="390" width="66.6" height="90" as="geometry" />
        </mxCell>
        <mxCell id="1o7vuktFabqarNYMkRX7-2" value="" style="shape=image;html=1;verticalAlign=top;verticalLabelPosition=bottom;labelBackgroundColor=#ffffff;imageAspect=0;aspect=fixed;image=https://cdn1.iconfinder.com/data/icons/ionicons-fill-vol-2/512/logo-firefox-128.png" vertex="1" parent="1">
          <mxGeometry x="645" y="591" width="49" height="49" as="geometry" />
        </mxCell>
      </root>
    </mxGraphModel>
  </diagram>
</mxfile>
